<?xml version="1.0" encoding="iso-8859-1"?>
<!-- Uploaded to: SVG Repo, www.svgrepo.com, Generator: SVG Repo Mixer Tools -->
<svg height="800px" width="800px" version="1.1" id="Layer_1" xmlns="http://www.w3.org/2000/svg" xmlns:xlink="http://www.w3.org/1999/xlink" 
	 viewBox="0 0 512 512" xml:space="preserve">
<path style="fill:#FCD577;" d="M258.589,298.418h226.693V163.21c0-46.365-37.587-83.953-83.953-83.953l0,0H174.636"/>
<path style="fill:#EAC36E;" d="M248.867,79.257L248.867,79.257h-29.424c46.365,0,83.953,37.587,83.953,83.953v67.49
	c0,16.25,13.173,29.424,29.423,29.424l0,0V163.21C332.82,116.844,295.233,79.257,248.867,79.257z"/>
<path style="fill:#415E72;" d="M174.636,79.257L174.636,79.257c-46.367,0-83.953,37.587-83.953,83.953v135.209h167.906V163.21
	C258.589,116.844,221.002,79.257,174.636,79.257z"/>
<polygon style="fill:#CFDCE5;" points="258.592,298.414 65.944,298.414 65.944,150.755 257.673,150.755 "/>
<path style="fill:#BAC6CC;" d="M225.94,298.414V163.21c0-4.23-0.318-8.39-0.919-12.455h32.652l0.919,147.659H225.94z"/>
<path style="fill:#415E72;" d="M346.961,8.56h-28.869v236.541c0,7.972,6.462,14.434,14.434,14.434l0,0
	c7.972,0,14.434-6.462,14.434-14.434V8.56z"/>
<polygon style="fill:#FF6F52;" points="346.961,108.42 346.961,24.467 430.914,66.444 "/>
<polyline style="fill:#FCD577;" points="278.618,503.44 278.618,298.418 324.571,298.418 324.571,503.44 "/>
<polyline style="fill:#EAC36E;" points="278.618,366.392 278.618,298.418 324.571,298.418 324.571,336.933 "/>
<path d="M453.185,86.503c-3.919-2.647-9.239-1.616-11.886,2.301c-2.647,3.917-1.616,9.238,2.301,11.885
	c20.818,14.063,33.246,37.437,33.246,62.522v126.649H267.274V163.21c0-31.081-15.423-58.608-38.999-75.393h64.02
	c4.727,0,8.56-3.833,8.56-8.56s-3.833-8.56-8.56-8.56H174.761l0,0l0,0c-34.743,0-66.249,19.185-82.22,50.067
	c-2.172,4.199-0.528,9.363,3.671,11.535c4.199,2.171,9.363,0.528,11.535-3.672c13.02-25.173,38.698-40.812,67.014-40.812
	c34.279,0,63.266,23.004,72.39,54.378H66.07c-4.727,0-8.56,3.833-8.56,8.56v139.103H26.592c-4.727,0-8.56,3.833-8.56,8.56
	c0,4.727,3.833,8.56,8.56,8.56h243.591v196.462c0,4.727,3.833,8.56,8.56,8.56s8.56-3.833,8.56-8.56V306.978h28.833V503.44
	c0,4.727,3.833,8.56,8.56,8.56c4.727,0,8.56-3.833,8.56-8.56V306.978h152.151c4.727,0,8.56-3.833,8.56-8.56V163.21
	C493.966,132.43,478.722,103.754,453.185,86.503z M250.148,163.003l-77.153,59.773l-39.148-30.335
	c-3.738-2.897-9.115-2.213-12.009,1.524c-2.896,3.737-2.213,9.114,1.524,12.009l44.386,34.397c1.544,1.197,3.394,1.795,5.244,1.795
	c1.849,0,3.699-0.597,5.241-1.792l71.92-55.717v79.856l-36.961-28.641c-3.738-2.897-9.115-2.214-12.009,1.523
	c-2.896,3.737-2.214,9.114,1.523,12.009l47.447,36.767v3.684H91.097l53.142-41.18c3.737-2.896,4.418-8.272,1.523-12.009
	c-2.896-3.737-8.271-4.418-12.009-1.523l-59.121,45.814V168.215l26.352,20.416c1.56,1.209,3.406,1.794,5.236,1.794
	c2.557,0,5.086-1.14,6.773-3.317c2.896-3.737,2.213-9.114-1.524-12.009l-20.373-15.783h158.958
	C250.116,160.536,250.145,161.767,250.148,163.003z"/>
<path d="M332.652,268.095c12.679,0,22.994-10.315,22.994-22.994v-131.39L434.867,74.1c2.9-1.451,4.732-4.414,4.732-7.656
	s-1.832-6.207-4.732-7.656l-79.221-39.611V8.56c0-4.727-3.833-8.56-8.56-8.56h-28.868c-4.727,0-8.56,3.833-8.56,8.56v236.541
	C309.657,257.78,319.973,268.095,332.652,268.095z M411.898,66.444L355.645,94.57V38.318L411.898,66.444z M326.777,17.12h11.748
	v227.981c0,3.239-2.635,5.874-5.874,5.874s-5.873-2.635-5.873-5.874V17.12z"/>
</svg>